<?xml version="1.0" encoding="UTF-8"?>
<svg version="1.1" xmlns="http://www.w3.org/2000/svg" width="920" height="271">
<path d="M0 0 C1.23755287 0.07874863 1.23755287 0.07874863 2.50010681 0.15908813 C3.90832954 0.24450615 3.90832954 0.24450615 5.34500122 0.33164978 C6.89118889 0.43306526 6.89118889 0.43306526 8.46861267 0.53652954 C10.67157479 0.67137846 12.87453704 0.80622539 15.07749939 0.94107056 C16.23844116 1.01415436 17.39938293 1.08723816 18.59550476 1.16253662 C36.44075258 2.28437235 54.26765331 3.3492478 72.14854431 3.63369751 C93.70353788 4.07819357 112.80388844 8.47651065 130.13267517 21.72793579 C132.14629681 23.28451241 132.14629681 23.28451241 135.12095642 23.01309204 C135.12095642 22.35309204 135.12095642 21.69309204 135.12095642 21.01309204 C137.10095642 20.51809204 137.10095642 20.51809204 139.12095642 20.01309204 C139.12095642 19.35309204 139.12095642 18.69309204 139.12095642 18.01309204 C160.81878326 6.66854298 179.98509699 3.91199882 204.24629211 3.12142944 C209.87697001 2.93725591 215.5067663 2.72959542 221.13658142 2.52090454 C222.80336189 2.45952805 222.80336189 2.45952805 224.5038147 2.39691162 C234.28075786 2.02722125 244.04447748 1.50895777 253.80845642 0.88809204 C254.50881012 0.84361938 255.20916382 0.79914673 255.93074036 0.75332642 C259.6613709 0.51465512 263.39141568 0.26820854 267.12095642 0.01309204 C268.30448592 3.74155986 268.24119287 7.2759514 268.23448181 11.16836548 C268.23462784 11.88096024 268.23477386 12.59355499 268.23492432 13.32774353 C268.23422933 15.67601599 268.22645636 18.02420849 268.21861267 20.37246704 C268.21674702 22.0034277 268.21532381 23.63438892 268.21432495 25.26535034 C268.21051136 29.55284173 268.20069096 33.84029912 268.18962097 38.1277771 C268.17938195 42.50490865 268.17482199 46.88204571 268.16978455 51.25918579 C268.15906766 59.84383679 268.14200514 68.42846018 268.12095642 77.01309204 C262.50685416 78.52932105 257.06936522 79.54632698 251.28501892 80.11465454 C250.4312265 80.19905792 249.57743408 80.2834613 248.69776917 80.37042236 C235.84782142 81.52043551 222.9157001 81.37219374 210.02427673 81.39395142 C187.86500151 81.45653056 168.42833608 83.58393056 149.27720642 95.68106079 C147.27027841 96.92084784 145.24667177 97.99371491 143.12095642 99.01309204 C143.12095642 99.67309204 143.12095642 100.33309204 143.12095642 101.01309204 C142.46095642 101.01309204 141.80095642 101.01309204 141.12095642 101.01309204 C141.12095642 101.67309204 141.12095642 102.33309204 141.12095642 103.01309204 C139.47607349 104.70126137 137.807581 106.36662519 136.12095642 108.01309204 C135.46095642 109.00309204 134.80095642 109.99309204 134.12095642 111.01309204 C131.12095642 111.01309204 131.12095642 111.01309204 129.57798767 109.50918579 C129.03529236 108.82984985 128.49259705 108.15051392 127.93345642 107.45059204 C124.3247383 103.16098371 120.49919027 99.50908291 116.12095642 96.01309204 C115.46740173 95.48715454 114.81384705 94.96121704 114.14048767 94.41934204 C107.53117622 89.55846008 100.00862516 87.04463046 92.12095642 85.01309204 C91.15488464 84.75125122 90.18881287 84.4894104 89.19346619 84.21963501 C76.68968107 81.24957698 64.09722184 81.55454087 51.30845642 81.51309204 C1.4565821 81.34871772 1.4565821 81.34871772 -2.87904358 77.01309204 C-2.97930053 74.64547629 -3.01523293 72.30702131 -3.00843811 69.93887329 C-3.01019043 69.19906219 -3.01194275 68.4592511 -3.01374817 67.69702148 C-3.01816668 65.23985481 -3.01522871 62.78275951 -3.01185608 60.32559204 C-3.01252912 58.62547797 -3.01349914 56.92536399 -3.01475525 55.22525024 C-3.01623222 51.65745124 -3.01407769 48.08967721 -3.00941467 44.5218811 C-3.00371738 39.9382071 -3.00699639 35.35459165 -3.01298714 30.7709198 C-3.01659277 27.25889644 -3.01545415 23.74688706 -3.01285934 20.23486328 C-3.01219008 18.54429111 -3.01301847 16.85371769 -3.0153389 15.16314697 C-3.01786547 12.80450047 -3.01402479 10.44595009 -3.00843811 8.08731079 C-3.01046234 7.38182098 -3.01248657 6.67633118 -3.01457214 5.94946289 C-2.9884264 0.02082155 -2.9884264 0.02082155 0 0 Z " fill="#FEFEFE" transform="translate(7.8790435791015625,-0.013092041015625)"/>
<path d="M0 0 C13.17405768 10.2486708 19.58672758 21.53435639 22 38 C22.23039156 42.17769655 22.18181351 46.33710926 22.1171875 50.51953125 C22.09616954 53.01382512 22.07636566 55.50812944 22.05761719 58.00244141 C22.03967102 59.95902679 22.03967102 59.95902679 22.0213623 61.95513916 C21.98739275 66.74076831 22.03314979 71.52495549 22.08005905 76.31035042 C22.13343396 81.95883626 22.14252409 87.60645142 22.12694168 93.25515556 C22.11869601 96.86692841 22.1301712 100.47667994 22.18164062 104.08813477 C22.23192285 107.67453374 22.23311685 111.25797961 22.20095444 114.84455299 C22.19548031 116.82597913 22.23967558 118.80734845 22.28543091 120.78825378 C22.20199416 126.02991795 22.10781509 129.58377819 18.8092804 133.80059814 C12.8407932 139.26205853 6.41593393 142.86365686 -1 146 C-1.74894531 146.31710937 -2.49789062 146.63421875 -3.26953125 146.9609375 C-14.3428838 151.11087668 -26.62874002 151.36588994 -38.3125 151.3125 C-39.57779541 151.30831055 -40.84309082 151.30412109 -42.14672852 151.29980469 C-51.75130556 151.18422762 -60.69168269 150.31709186 -70 148 C-71.20140625 147.7215625 -72.4028125 147.443125 -73.640625 147.15625 C-82.73559648 144.83242469 -89.28659878 141.35670061 -98 137 C-98.33 108.62 -98.66 80.24 -99 51 C-97.02 50.505 -97.02 50.505 -95 50 C-93 52 -93 52 -93 55 C-91.68 55.33 -90.36 55.66 -89 56 C-89 56.66 -89 57.32 -89 58 C-88.33355469 58.24878906 -87.66710937 58.49757813 -86.98046875 58.75390625 C-84.02258158 59.99055895 -81.22282227 61.39410097 -78.37939453 62.86865234 C-71.71227649 66.31640131 -65.33294655 69.25876356 -58 71 C-57.25524414 71.17700439 -56.51048828 71.35400879 -55.74316406 71.53637695 C-49.48870813 72.90397125 -43.51890853 73.35065919 -37.125 73.3125 C-36.16190918 73.30831055 -35.19881836 73.30412109 -34.20654297 73.29980469 C-23.59414454 73.13149602 -15.35419476 70.8473059 -6 66 C-18.96390254 59.14360996 -31.07732803 54.65881474 -45.5625 52.0625 C-60.40927628 49.36058822 -74.74914048 43.65542441 -85 32 C-85 31.34 -85 30.68 -85 30 C-85.66 30 -86.32 30 -87 30 C-91 23.375 -91 23.375 -91 20 C-91.66 19.67 -92.32 19.34 -93 19 C-93 17.68 -93 16.36 -93 15 C-92.34 15 -91.68 15 -91 15 C-91 14.01 -91 13.02 -91 12 C-90.34 12 -89.68 12 -89 12 C-89 11.34 -89 10.68 -89 10 C-65.75743469 -10.32726073 -27.03254075 -17.78100343 0 0 Z " fill="#FEFEFE" transform="translate(254,112)"/>
<path d="M0 0 C20.81171056 0.31463032 40.5081134 2.55384992 58 15 C58 15.66 58 16.32 58 17 C58.7321875 17.22945312 59.464375 17.45890625 60.21875 17.6953125 C68.44329485 21.55345573 72.98972241 31.19574315 76.125 39.2734375 C77.4610507 43.43666691 78.12261145 47.3318905 78.15821838 51.70137024 C78.1680072 52.6169722 78.17779602 53.53257416 78.18788147 54.47592163 C78.19363693 55.46782501 78.1993924 56.45972839 78.20532227 57.48168945 C78.21522186 58.53580521 78.22512146 59.58992096 78.23532104 60.67597961 C78.2668711 64.15505743 78.29166788 67.63414889 78.31640625 71.11328125 C78.33698138 73.52752535 78.357978 75.94176589 78.37937927 78.35600281 C78.43454219 84.70664588 78.483977 91.05732116 78.53222656 97.40802002 C78.59132177 105.02975228 78.65751796 112.65142576 78.72252655 120.27310944 C78.82046334 131.84870369 78.90936928 143.42433585 79 155 C54.58 155 30.16 155 5 155 C4.97421875 144.77 4.9484375 134.54 4.921875 124 C4.89670895 117.51951209 4.87054083 111.03905391 4.83984375 104.55859375 C4.79130542 94.27230026 4.74686111 83.98610566 4.72900391 73.69970703 C4.71597917 66.20784005 4.68899363 58.71617423 4.64538693 51.22442055 C4.62279045 47.25917355 4.60708822 43.29417451 4.60811615 39.32885742 C4.60886385 35.59243107 4.59086976 31.85655244 4.55883217 28.12026787 C4.54632336 26.10365981 4.55338865 24.0869597 4.56114197 22.07032776 C4.47782972 14.79936646 3.65529886 10.27128489 0 4 C0 2.68 0 1.36 0 0 Z " fill="#FEFEFE" transform="translate(53,104)"/>
<path d="M0 0 C3.08261456 -0.1746397 6.16395833 -0.28094067 9.25 -0.375 C10.12269531 -0.42527344 10.99539063 -0.47554687 11.89453125 -0.52734375 C14.38439024 -0.58436342 16.56621535 -0.53267313 19 0 C23.13612284 4.1492952 24.18780308 9.44732337 25.5 15 C25.92194605 16.69301562 26.34513417 18.38572213 26.76953125 20.078125 C26.97529785 20.91021484 27.18106445 21.74230469 27.39306641 22.59960938 C28.78533136 28.10594447 30.41521479 33.54667796 32 39 C32.66875823 41.33274125 33.33449305 43.66632807 34 46 C35.00646726 42.56435978 36.0040545 39.12620371 37 35.6875 C37.42925781 34.22280273 37.42925781 34.22280273 37.8671875 32.72851562 C38.13789063 31.79072266 38.40859375 30.85292969 38.6875 29.88671875 C39.06455078 28.59060669 39.06455078 28.59060669 39.44921875 27.26831055 C40.11797962 24.90315554 40.11797962 24.90315554 40 22 C40.66 22 41.32 22 42 22 C42.0825 21.113125 42.165 20.22625 42.25 19.3125 C43.09948484 13.41464814 44.76324594 7.5147557 47 2 C50.82958888 -0.55305926 54.00054728 -0.33112701 58.4375 -0.3125 C59.20126953 -0.32861328 59.96503906 -0.34472656 60.75195312 -0.36132812 C61.86280273 -0.36229492 61.86280273 -0.36229492 62.99609375 -0.36328125 C64.00434204 -0.36775269 64.00434204 -0.36775269 65.03295898 -0.37231445 C67.79724009 0.15089874 69.00259895 1.00290239 71 3 C71.50120544 6.07397461 71.50120544 6.07397461 71.50170898 9.90234375 C71.50981346 10.94915817 71.50981346 10.94915817 71.51808167 12.01712036 C71.53059081 14.3243448 71.51406511 16.63032661 71.49609375 18.9375 C71.49624869 20.54028387 71.49773682 22.14306812 71.50050354 23.74584961 C71.5018885 27.10514893 71.48931376 30.46402179 71.46655273 33.82324219 C71.43816743 38.13109339 71.44090394 42.43823588 71.45364285 46.74613953 C71.46059504 50.0558478 71.45281608 53.36539202 71.44038582 56.67507935 C71.43586682 58.26351289 71.43553843 59.85196402 71.43945122 61.44039917 C71.44235904 63.65985261 71.42587869 65.87832653 71.40405273 68.09765625 C71.39864975 69.36101807 71.39324677 70.62437988 71.38768005 71.92602539 C71 75 71 75 69.61927795 76.87670898 C67.32729794 78.46665255 65.79892155 78.8698176 63 79 C59.75 77.75 59.75 77.75 57 76 C56.07076023 73.21228069 55.85132662 71.41765752 55.79467773 68.52856445 C55.7647599 67.17750359 55.7647599 67.17750359 55.73423767 65.79914856 C55.71752518 64.83031235 55.70081268 63.86147614 55.68359375 62.86328125 C55.66281265 61.86870407 55.64203156 60.87412689 55.62062073 59.84941101 C55.55520588 56.67051133 55.4962776 53.49152866 55.4375 50.3125 C55.39430712 48.15819452 55.35069258 46.00389746 55.30664062 43.84960938 C55.19953274 38.56649412 55.09775127 33.28329621 55 28 C54.84764893 29.11117187 54.69529785 30.22234375 54.53833008 31.3671875 C54.12396444 34.16345086 53.66123819 36.38885848 52.6875 39 C51.28170714 43.01947569 50.14644026 47.06938051 49.0625 51.1875 C48.80847412 52.14245361 48.80847412 52.14245361 48.54931641 53.11669922 C47.68415124 56.3726884 46.84194728 59.63236661 46.03125 62.90234375 C45.7115625 64.13082031 45.391875 65.35929687 45.0625 66.625 C44.78535156 67.73101562 44.50820313 68.83703125 44.22265625 69.9765625 C42.75911494 73.59567104 40.96466674 75.49248034 38 78 C34.39698515 79.20100495 32.7974947 79.35238138 29.3125 77.8125 C23.92060067 73.58641674 22.97874291 68.87417212 21.5 62.4375 C21.06863685 60.63128842 20.63635189 58.82529672 20.203125 57.01953125 C19.8947168 55.71943115 19.8947168 55.71943115 19.58007812 54.39306641 C18.86708822 51.45168298 18.07183736 48.5376883 17.25 45.625 C16.26820372 42.10273652 15.49064016 38.63073717 15 35 C12.46782238 37.53217762 12.75765996 39.13324876 12.72354126 42.58711243 C12.72453827 43.34856064 12.72553528 44.11000885 12.7265625 44.89453125 C12.70626707 46.50586624 12.68541617 48.11719431 12.6640625 49.72851562 C12.64148971 52.26967188 12.62500449 54.81055485 12.61914062 57.35180664 C12.60959789 59.80405172 12.57579316 62.25506346 12.5390625 64.70703125 C12.54410797 65.46240677 12.54915344 66.21778229 12.55435181 66.99604797 C12.46236988 71.94711313 11.5489346 74.53117585 8 78 C5.44148552 79.23799088 4.23191441 79.04525159 1.4375 78.5 C-2.02499444 76.36923419 -3.02514892 73.81097767 -4 70 C-4.42698963 65.31985874 -4.39652377 60.66159965 -4.36328125 55.96484375 C-4.36276173 54.59916688 -4.36328297 53.23348925 -4.36479187 51.86781311 C-4.36470251 49.01584604 -4.35434731 46.16416379 -4.33618164 43.31225586 C-4.31347401 39.6685467 -4.3129582 36.02525216 -4.31969929 32.38149166 C-4.32305051 29.56495012 -4.3163879 26.748502 -4.30657005 23.93197823 C-4.30088588 21.93902991 -4.30214935 19.94606567 -4.30354309 17.95310974 C-4.29401108 16.73487015 -4.28447906 15.51663055 -4.2746582 14.26147461 C-4.27005081 13.19448837 -4.26544342 12.12750214 -4.26069641 11.02818298 C-3.97937965 7.76047927 -3.15297895 5.06026044 -2 2 C-1.34 2 -0.68 2 0 2 C0 1.34 0 0.68 0 0 Z M12 23 C12 24.65 12 26.3 12 28 C12.33 28 12.66 28 13 28 C13 26.35 13 24.7 13 23 C12.67 23 12.34 23 12 23 Z M33 47 C34 49 34 49 34 49 Z " fill="#FEFEFE" transform="translate(405,46)"/>
<path d="M0 0 C3.01878821 1.66033352 3.97947256 3.33394512 5.5 6.375 C6.05429687 6.02566406 6.60859375 5.67632812 7.1796875 5.31640625 C7.90414062 4.86136719 8.62859375 4.40632813 9.375 3.9375 C10.09429688 3.48503906 10.81359375 3.03257813 11.5546875 2.56640625 C16.82931748 -0.66403982 22.45078258 -0.0439616 28.5 0.375 C32.76469804 1.89294337 33.99935788 2.62403681 36.5 6.375 C39.51815987 5.30976711 41.84482774 4.13793093 44.5 2.3125 C49.39310324 -0.84762917 53.4994353 -0.94247943 59.15234375 -0.1875 C63.14465385 0.76906016 66.60099954 2.44976424 69.5 5.375 C72.45136456 10.99916109 72.94366145 15.55868312 72.8984375 21.8515625 C72.90130768 22.73983734 72.90417786 23.62811218 72.90713501 24.54330444 C72.90916665 26.4107121 72.90370009 28.27814147 72.89111328 30.14550781 C72.87500829 32.99853059 72.89101203 35.85014509 72.91015625 38.703125 C72.9081744 40.52344061 72.90433194 42.34375535 72.8984375 44.1640625 C72.90451019 45.01312164 72.91058289 45.86218079 72.9168396 46.73696899 C72.86159526 51.39814416 72.61121502 54.6395223 69.5 58.375 C65.98283962 59.59836013 64.22854306 59.65648255 60.75 58.3125 C57.87971119 55.84086241 57.46256523 54.01659673 56.5 50.375 C56.3046875 47.25048828 56.3046875 47.25048828 56.375 43.9453125 C56.39046875 42.73746094 56.4059375 41.52960938 56.421875 40.28515625 C56.47379715 37.76952792 56.52587948 35.25390289 56.578125 32.73828125 C56.66117919 26.23929062 56.56864704 20.56573049 54.5 14.375 C53.34859132 13.01645975 53.34859132 13.01645975 50.25 13 C46.38920339 13.04843037 46.38920339 13.04843037 43.625 15.625 C40.28668301 19.94517493 40.38968609 23.26743282 40.5078125 28.64453125 C40.52457031 29.86333984 40.54132812 31.08214844 40.55859375 32.33789062 C40.60266503 34.8927289 40.65467608 37.44744324 40.71484375 40.00195312 C40.85431409 52.02810025 40.85431409 52.02810025 37.5 57.375 C34.125 59 34.125 59 30.5 59.375 C27.66490257 58.24096103 26.12590222 57.27699525 24.38476562 54.76782227 C23.10079166 51.29535293 23.1817206 47.87053159 23.15625 44.21484375 C23.1416272 43.42856094 23.12700439 42.64227814 23.11193848 41.83216858 C23.04979237 38.47575808 23.0100399 35.11916702 22.96826172 31.76245117 C22.93453737 29.30888611 22.88943179 26.85571056 22.84375 24.40234375 C22.8384729 23.64291977 22.8331958 22.88349579 22.82775879 22.10105896 C22.75636304 18.33490636 22.64045719 16.58568579 20.5 13.375 C14.8644771 12.67246077 14.8644771 12.67246077 10.0625 15.1875 C7.19970328 19.19541541 7.35271059 22.9854261 7.32421875 27.7109375 C7.3010208 29.18230598 7.27690347 30.65366019 7.25195312 32.125 C7.21685678 34.43792279 7.18749814 36.75031997 7.17407227 39.06347656 C7.15855538 41.30077238 7.11833057 43.53654622 7.07421875 45.7734375 C7.07612717 46.46005463 7.07803558 47.14667175 7.08000183 47.85409546 C6.95973718 52.59894888 5.86556236 55.04601556 2.5 58.375 C0.5 59.0390625 0.5 59.0390625 -1.5 59 C-2.49 59.01933594 -2.49 59.01933594 -3.5 59.0390625 C-6.79650809 57.9445188 -7.70164134 56.34381036 -9.5 53.375 C-10.09975638 49.6877599 -10.06046649 46.03767563 -10.03125 42.30859375 C-10.0350769 41.23754898 -10.03890381 40.16650421 -10.04284668 39.06300354 C-10.04556443 36.80281634 -10.03821295 34.54259762 -10.02148438 32.2824707 C-10.00005303 28.82106575 -10.02130283 25.36173156 -10.046875 21.90039062 C-10.04423211 19.70312042 -10.03910795 17.5058515 -10.03125 15.30859375 C-10.03934692 14.27310898 -10.04744385 13.23762421 -10.05578613 12.17076111 C-9.9624664 5.03169006 -9.9624664 5.03169006 -7.65429688 1.75415039 C-4.84492358 -0.04437066 -3.29587406 -0.82396851 0 0 Z " fill="#FEFEFE" transform="translate(847.5,65.625)"/>
<path d="M0 0 C2.83708502 2.21132608 3.88729929 3.4654914 4.63769531 7.02441406 C4.70053711 8.17651367 4.76337891 9.32861328 4.828125 10.515625 C4.90546875 11.76601563 4.9828125 13.01640625 5.0625 14.3046875 C5.124375 15.60664062 5.18625 16.90859375 5.25 18.25 C5.32734375 19.56742188 5.4046875 20.88484375 5.484375 22.2421875 C5.67289933 25.49423213 5.84409403 28.74625512 6 32 C6.61875 31.34 7.2375 30.68 7.875 30 C10 28 10 28 12 28 C12.2475 27.43796875 12.495 26.8759375 12.75 26.296875 C14.21274867 23.60907431 15.96804873 21.53594518 18 19.25 C18.70125 18.45078125 19.4025 17.6515625 20.125 16.828125 C22 15 22 15 24 15 C24 14.34 24 13.68 24 13 C25.49609375 11.5625 25.49609375 11.5625 27.4375 10 C30.15188238 7.85474956 30.15188238 7.85474956 32 5 C32.66 5 33.32 5 34 5 C34.28875 4.360625 34.5775 3.72125 34.875 3.0625 C36 1 36 1 38 0 C45.11699779 -0.57395143 45.11699779 -0.57395143 48.5 1.625 C50.49476086 4.78337137 50.66260372 6.31886821 50 10 C48.53573775 12.37739996 47.0060961 13.9939039 45 16 C44.34 16 43.68 16 43 16 C42.79632812 16.54140625 42.59265625 17.0828125 42.3828125 17.640625 C40.44687192 20.94375526 37.71300664 23.24122847 34.875 25.75 C34.31167969 26.25660156 33.74835937 26.76320313 33.16796875 27.28515625 C31.78348469 28.52884532 30.39238512 29.76516305 29 31 C32.80175972 37.1684181 36.77421947 43.17885765 41 49.0625 C41.42450439 49.65716064 41.84900879 50.25182129 42.28637695 50.86450195 C44.20524502 53.54340527 46.14549145 56.18837591 48.16015625 58.796875 C51.69871777 63.47620481 53.77666843 67.09908577 54.3203125 72.9921875 C53.88019349 75.75098227 52.98010735 77.04141556 51 79 C48.6953125 79.56640625 48.6953125 79.56640625 46.125 79.5625 C45.28195312 79.58441406 44.43890625 79.60632813 43.5703125 79.62890625 C38.05267855 78.27884688 35.26927946 73.15880843 32.46044922 68.58007812 C32.06100098 67.91427734 31.66155273 67.24847656 31.25 66.5625 C30.38367227 65.146609 29.51646507 63.73125578 28.6484375 62.31640625 C28.21241211 61.60242676 27.77638672 60.88844727 27.32714844 60.15283203 C25.22252958 56.73882741 23.05148931 53.36848054 20.875 50 C20.48473633 49.39486572 20.09447266 48.78973145 19.69238281 48.16625977 C18.7958632 46.77689865 17.89808765 45.38834805 17 44 C13.05493192 46.2665969 10.13886582 48.69146576 7 52 C6.34 52.66 5.68 53.32 5 54 C4.88100409 57.55872154 4.95748815 61.05946312 5.078125 64.61523438 C5.18433609 69.70894129 4.84959698 73.53387069 1.6875 77.75 C-0.62546965 79.46331085 -2.11444926 79.86578834 -5 80 C-8.25 78.75 -8.25 78.75 -11 77 C-12.1161099 73.65167031 -12.17975864 71.02608131 -12.25292969 67.49658203 C-12.26764816 66.84093262 -12.28236664 66.1852832 -12.29753113 65.50976562 C-12.34440291 63.34251969 -12.38380021 61.17522988 -12.421875 59.0078125 C-12.43573494 58.26659023 -12.44959488 57.52536797 -12.46387482 56.76168442 C-12.53707798 52.83973441 -12.60462763 48.91773453 -12.66748047 44.99560547 C-12.73339862 40.9478855 -12.81802277 36.9007857 -12.9070549 32.85351753 C-12.97224252 29.73780458 -13.02367685 26.62197215 -13.07138824 23.50594711 C-13.09659836 22.01396063 -13.12694199 20.52205157 -13.16255951 19.03027725 C-13.21112907 16.94086558 -13.24020682 14.85202147 -13.26464844 12.76220703 C-13.28605896 11.57434601 -13.30746948 10.38648499 -13.32952881 9.16262817 C-12.96374426 5.65203824 -12.10685182 3.80291319 -10 1 C-6.87057535 -0.56471233 -3.38917777 -0.69701958 0 0 Z M4 33 C5 35 5 35 5 35 Z " fill="#FEFEFE" transform="translate(499,45)"/>
<path d="M0 0 C0.59683594 0.46535156 1.19367188 0.93070313 1.80859375 1.41015625 C2.77796875 2.15265625 3.74734375 2.89515625 4.74609375 3.66015625 C7.48659395 7.31415652 9.03907429 10.89946242 9.80859375 15.41015625 C9.02458015 18.76003255 8.22603946 19.99271054 5.80859375 22.41015625 C2.80638389 22.74911543 0.70547305 22.96991181 -2.19140625 22.41015625 C-4.79792198 19.94844695 -6.20860205 17.38050831 -8.00390625 14.28515625 C-10.79395009 10.61824149 -12.76312075 9.6442686 -17.19140625 8.41015625 C-21.7925275 8.22074474 -25.21056495 8.86969267 -29.25390625 11.09765625 C-31.40852372 13.31324329 -31.40852372 13.31324329 -31.87890625 16.41015625 C-31.46720026 19.58341584 -31.46720026 19.58341584 -28.8203125 21.41796875 C-24.41045184 24.17094535 -19.44374014 25.08943953 -14.44140625 26.28515625 C1.20459871 30.27058068 1.20459871 30.27058068 6.80859375 35.41015625 C6.80859375 36.07015625 6.80859375 36.73015625 6.80859375 37.41015625 C7.79859375 37.74015625 8.78859375 38.07015625 9.80859375 38.41015625 C13.63107781 44.79613161 13.47426167 52.38253485 11.80859375 59.41015625 C8.38620399 67.23444731 2.84641158 71.30424422 -4.8359375 74.515625 C-14.65116211 77.13225647 -27.69160074 76.88485368 -36.9921875 72.73828125 C-43.15222235 69.01818916 -47.11362299 64.3768413 -49.19140625 57.41015625 C-49.78659848 53.4521279 -49.81681932 50.41081717 -47.62890625 46.91015625 C-44.11006492 44.74471543 -42.24102784 44.55760434 -38.19140625 45.41015625 C-36.03349388 47.81705851 -34.66751662 50.55051386 -33.19140625 53.41015625 C-30.32159249 58.01959131 -30.32159249 58.01959131 -26.19140625 61.41015625 C-20.09007666 62.77579681 -12.9617556 63.15853385 -7.19140625 60.41015625 C-4.81255951 56.79643047 -4.73392043 53.6800239 -5.19140625 49.41015625 C-7.94806072 45.98192702 -10.46569149 44.67550239 -14.62890625 43.41015625 C-15.68207031 43.08144531 -16.73523438 42.75273438 -17.8203125 42.4140625 C-18.93277344 42.08277344 -20.04523438 41.75148437 -21.19140625 41.41015625 C-23.48385389 40.7252649 -25.77553558 40.037804 -28.06640625 39.34765625 C-29.09507812 39.04730469 -30.12375 38.74695313 -31.18359375 38.4375 C-36.41739078 36.64985244 -40.39322817 34.71907449 -44.00390625 30.47265625 C-44.87982422 29.46912109 -44.87982422 29.46912109 -45.7734375 28.4453125 C-48.8828632 23.98247285 -48.6804181 18.66481082 -48.19140625 13.41015625 C-46.07463471 6.72561453 -42.58621005 2.71923068 -36.62890625 -0.83984375 C-26.5872493 -5.95196002 -9.54200217 -6.10620103 0 0 Z " fill="#FEFEFE" transform="translate(382.19140625,48.58984375)"/>
<path d="M0 0 C3.90319061 2.99370931 6.72546613 6.03410013 7.5234375 10.97265625 C7.77971023 15.09325191 7.71488704 17.10576877 5.109375 20.421875 C1.36783638 22.1732335 -0.86770707 21.72873804 -4.828125 20.796875 C-4.828125 20.136875 -4.828125 19.476875 -4.828125 18.796875 C-5.488125 18.796875 -6.148125 18.796875 -6.828125 18.796875 C-7.158125 17.146875 -7.488125 15.496875 -7.828125 13.796875 C-8.488125 13.796875 -9.148125 13.796875 -9.828125 13.796875 C-9.828125 12.806875 -9.828125 11.816875 -9.828125 10.796875 C-10.488125 10.796875 -11.148125 10.796875 -11.828125 10.796875 C-11.828125 10.136875 -11.828125 9.476875 -11.828125 8.796875 C-17.7437513 7.10669606 -23.63722962 6.95126626 -29.390625 9.171875 C-31.91985902 10.56689393 -31.91985902 10.56689393 -32.828125 12.796875 C-32.868117 14.79647512 -32.87159299 16.79734742 -32.828125 18.796875 C-26.86202305 22.13789209 -20.96021321 23.9912205 -14.375 25.79296875 C4.57921164 31.15776213 4.57921164 31.15776213 9.21484375 39.08984375 C11.51880178 45.60675359 11.4680772 53.83691781 9.3203125 60.3984375 C5.32395812 67.43963332 -1.03702555 71.55607092 -8.703125 73.671875 C-19.58163309 75.981508 -31.07043246 75.46983916 -41.0078125 70.05859375 C-46.10569636 66.52508197 -49.5559361 61.90338173 -50.828125 55.796875 C-51.38004722 51.30265119 -51.34698532 49.52938369 -48.703125 45.796875 C-45.828125 43.796875 -45.828125 43.796875 -42.765625 43.671875 C-37.72547267 45.6021461 -36.05330899 49.24323991 -33.890625 53.921875 C-33.61347656 54.58445313 -33.33632813 55.24703125 -33.05078125 55.9296875 C-31.34784922 58.5303313 -29.63330935 59.48619058 -26.828125 60.796875 C-20.46479936 61.67044057 -14.20911979 61.62021341 -8.828125 57.796875 C-6.23533195 53.90768543 -6.55424067 51.23538411 -7.06323242 46.70361328 C-7.65394736 44.6156955 -7.65394736 44.6156955 -9.75512695 43.85107422 C-10.57972412 43.64498535 -11.40432129 43.43889648 -12.25390625 43.2265625 C-13.61249756 42.86836426 -13.61249756 42.86836426 -14.99853516 42.50292969 C-15.9322998 42.26993164 -16.86606445 42.03693359 -17.828125 41.796875 C-21.22924498 40.85708339 -24.62165167 39.88710954 -28.015625 38.921875 C-28.86576172 38.69113281 -29.71589844 38.46039063 -30.59179688 38.22265625 C-36.22462157 36.59587908 -40.32293821 34.58879135 -44.828125 30.796875 C-44.828125 30.136875 -44.828125 29.476875 -44.828125 28.796875 C-45.488125 28.796875 -46.148125 28.796875 -46.828125 28.796875 C-49.84086564 21.76714683 -51.10543122 16.69602032 -48.640625 9.171875 C-44.24181592 0.98098913 -39.71863365 -1.92149962 -31.05859375 -4.7890625 C-20.34593194 -6.77775278 -9.20085509 -6.0552636 0 0 Z " fill="#FEFEFE" transform="translate(383.828125,161.203125)"/>
<path d="M0 0 C3.75068231 0.62511372 4.69882043 1.50855596 7 4.5 C7.5146637 7.64280701 7.5146637 7.64280701 7.53344727 11.39233398 C7.54637062 12.41991821 7.54637062 12.41991821 7.55955505 13.46826172 C7.5822176 15.72792583 7.57547623 17.98634989 7.56640625 20.24609375 C7.57164211 21.82023995 7.57791845 23.394383 7.58518982 24.96852112 C7.59559473 28.26635509 7.59103215 31.5637576 7.57641602 34.86157227 C7.55923523 39.08316628 7.58271252 43.30339835 7.61790562 47.52484035 C7.63989172 50.77546672 7.63843523 54.02576787 7.6301403 57.27644539 C7.62932129 58.83254553 7.63617537 60.38866966 7.65091133 61.94470024 C7.66837994 64.12340236 7.65380065 66.29966642 7.63110352 68.47827148 C7.63014175 69.71641098 7.62917999 70.95455048 7.62818909 72.23020935 C6.82377803 76.41725401 5.33904077 77.92424222 2 80.5 C-1.625 80.6875 -1.625 80.6875 -5 79.5 C-6.9375 76.4375 -6.9375 76.4375 -8 73.5 C-9.010625 74.28375 -10.02125 75.0675 -11.0625 75.875 C-16.66393692 79.85348538 -22.16546662 80.99705697 -29 80.5 C-36.19044752 78.73907408 -41.45274036 74.96313085 -45.671875 68.9453125 C-50.69091474 59.70437463 -51.02879141 48.63274826 -49 38.5 C-45.98349727 31.11575357 -41.65322846 25.97168243 -34.3125 22.75 C-27.34339085 20.36134112 -20.6034035 20.84337738 -13.7890625 23.453125 C-11.4834867 24.80223922 -9.85895756 26.59537372 -8 28.5 C-7.9906543 27.79391602 -7.98130859 27.08783203 -7.97167969 26.36035156 C-7.91794341 23.15619455 -7.83430243 19.95349243 -7.75 16.75 C-7.73582031 15.63882813 -7.72164063 14.52765625 -7.70703125 13.3828125 C-7.67480469 12.31289062 -7.64257812 11.24296875 -7.609375 10.140625 C-7.58842773 9.15610352 -7.56748047 8.17158203 -7.54589844 7.15722656 C-6.63304207 2.71378795 -4.41336219 0.73556037 0 0 Z M-31 37.5 C-34.71503904 44.16144932 -35.77329051 50.3660633 -33.9375 57.6875 C-32.25306021 62.64173469 -30.49860693 64.81813818 -26 67.5 C-21.96000155 68.65428527 -19.80019639 68.76673213 -15.8125 67.4375 C-11.65705113 64.57485745 -9.58281989 61.24845967 -8 56.5 C-7.29122884 49.30771566 -7.71529837 43.47048588 -12 37.5 C-15.00873959 34.15695601 -16.43915749 33.5712181 -20.9375 33 C-25.22316586 33.25067102 -27.78594679 34.58492849 -31 37.5 Z " fill="#FEFEFE" transform="translate(472,155.5)"/>
<path d="M0 0 C1.051875 -0.00386719 1.051875 -0.00386719 2.125 -0.0078125 C4 0.125 4 0.125 6 1.125 C7.26625424 4.92376271 7.23298547 8.54921926 7.31640625 12.51171875 C7.33718735 13.32872757 7.35796844 14.14573639 7.37937927 14.98750305 C7.44473079 17.59575034 7.50369273 20.20409775 7.5625 22.8125 C7.60569892 24.58139054 7.64931365 26.35027097 7.69335938 28.11914062 C7.80039743 32.45432463 7.90170544 36.78960929 8 41.125 C8.33 40.465 8.66 39.805 9 39.125 C9.66 39.125 10.32 39.125 11 39.125 C11.26643311 38.53549561 11.53286621 37.94599121 11.80737305 37.33862305 C13.8112079 33.61932507 16.84790214 30.90817908 19.8125 27.9375 C20.42931641 27.29619141 21.04613281 26.65488281 21.68164062 25.99414062 C27.38250295 20.25692849 27.38250295 20.25692849 32 20.125 C34.1875 20.3125 34.1875 20.3125 36 21.125 C37.8726491 23.53269171 38.0128371 24.88210859 37.8515625 27.93359375 C36.77736929 31.95935455 35.05635633 33.6392994 32.0625 36.5 C30.71865234 37.81097656 30.71865234 37.81097656 29.34765625 39.1484375 C27 41.125 27 41.125 25 41.125 C26.70514462 43.93944452 28.41474282 46.75115982 30.125 49.5625 C30.87680542 50.80350464 30.87680542 50.80350464 31.64379883 52.06958008 C34.19591582 56.26060307 36.80418913 60.33839442 39.6875 64.3125 C42.17835006 67.9839842 42.79147361 70.63998286 42 75.125 C40.55072523 78.02354954 39.63437018 78.87459072 36.625 80.0625 C33.00352746 80.14872554 31.90245951 79.35285629 29 77.125 C26.70824132 74.13830405 24.76536335 70.96534484 22.8125 67.75 C22.27947266 66.89921875 21.74644531 66.0484375 21.19726562 65.171875 C18.75628293 61.22945767 16.63874511 57.47613429 15 53.125 C12.0068296 54.69582833 9.94451348 56.34176866 8 59.125 C7.28531631 63.10497504 7.12630046 66.71858811 7.0703125 70.76171875 C7 74.125 7 74.125 6 77.125 C2.75 79 2.75 79 -1 80.125 C-3.94272089 79.01330544 -5.39950387 78.04313696 -7.12054443 75.41172791 C-8.28473275 72.38464841 -8.25436444 69.84294957 -8.25878906 66.59985352 C-8.2622937 65.95381165 -8.26579834 65.30776978 -8.26940918 64.64215088 C-8.27819092 62.51262576 -8.27238942 60.38343459 -8.265625 58.25390625 C-8.26697284 56.76944414 -8.26891437 55.28498246 -8.27142334 53.80052185 C-8.27436992 50.69110914 -8.27009263 47.58181144 -8.26074219 44.47241211 C-8.2493578 40.49336603 -8.25590353 36.51459007 -8.26788712 32.53555393 C-8.27512683 29.47029092 -8.27280793 26.40509155 -8.26763153 23.33982658 C-8.26630036 21.87305608 -8.26792407 20.40627975 -8.27259064 18.93951607 C-8.27768959 16.88603626 -8.26989844 14.83298877 -8.25878906 12.77954102 C-8.25640228 11.02892113 -8.25640228 11.02892113 -8.25396729 9.24293518 C-7.99847799 6.10631438 -7.4400075 3.91273072 -6 1.125 C-3.75487738 0.00243869 -2.48543351 -0.00913762 0 0 Z " fill="#FEFEFE" transform="translate(735,44.875)"/>
<path d="M0 0 C4.42565141 3.82165432 6.77184798 8.43619988 7.28710938 14.22631836 C7.31514648 16.01501343 7.31514648 16.01501343 7.34375 17.83984375 C7.37339844 19.15017578 7.40304687 20.46050781 7.43359375 21.81054688 C7.45680705 23.18618015 7.47893311 24.56183218 7.5 25.9375 C7.54141088 28.63462238 7.59528895 31.33048002 7.65625 34.02734375 C7.68428711 35.81773071 7.68428711 35.81773071 7.71289062 37.64428711 C8.00507711 41.05934088 8.86526515 43.78254915 10 47 C9.9375 50.1875 9.9375 50.1875 9 53 C6.24749534 55.4379327 4.67315726 55.98597589 1 56.0625 C-3.13500964 54.59801742 -4.45129713 52.52320691 -7 49 C-7.556875 49.33773437 -8.11375 49.67546875 -8.6875 50.0234375 C-17.15974031 54.97511849 -24.8746031 57.42925928 -34.75 55.125 C-38 54 -38 54 -41 52 C-41 51.34 -41 50.68 -41 50 C-41.66 50 -42.32 50 -43 50 C-44.4606285 47.35261084 -45 46.10551666 -45 43 C-45.66 42.67 -46.32 42.34 -47 42 C-45.3804262 31.02525651 -45.3804262 31.02525651 -41 27 C-35.06428718 23.00036532 -29.21704144 21.64340829 -22.25 20.25 C-21.20972656 20.02957031 -20.16945313 19.80914062 -19.09765625 19.58203125 C-11.50194099 18 -11.50194099 18 -8 18 C-8.42307123 16.68277821 -8.86397486 15.37127336 -9.3125 14.0625 C-9.55613281 13.33160156 -9.79976562 12.60070312 -10.05078125 11.84765625 C-10.91240441 9.64067976 -10.91240441 9.64067976 -14 9 C-19.21178241 8.5731302 -24.26660958 8.57558052 -29 11 C-30.24714403 13.40952023 -30.24714403 13.40952023 -31 16 C-32.48661446 17.89205477 -33.68283094 18.83594704 -35.8125 19.9375 C-39.2973859 20.03706817 -41.29864293 18.0260178 -44 16 C-43.79972295 10.29210409 -43.00837998 6.70067542 -38.96484375 2.54296875 C-29.50933079 -4.88233467 -10.4247291 -6.30660812 0 0 Z M-19.5 29.75 C-20.49580078 29.98589844 -20.49580078 29.98589844 -21.51171875 30.2265625 C-25.70148265 31.31372679 -28.38820189 32.49310995 -31 36 C-30.93608273 39.1319461 -30.660349 41.11534197 -28.76953125 43.6484375 C-25.69406734 45.99746733 -22.54457172 45.58146856 -18.8046875 45.4921875 C-14.42015367 44.72275677 -11.69028482 42.47706623 -9 39 C-8.08307039 36.24921116 -7.89113917 34.64051087 -7.9375 31.8125 C-7.958125 30.554375 -7.97875 29.29625 -8 28 C-12.08810047 28 -15.5841278 28.73111287 -19.5 29.75 Z " fill="#FEFEFE" transform="translate(591,180)"/>
<path d="M0 0 C0.763125 0.598125 1.52625 1.19625 2.3125 1.8125 C6.8068139 7.63846247 7.33820743 13.46484476 7.3984375 20.58203125 C6.9282113 23.43565885 6.29457875 24.29253178 4 26 C0.45995354 27.18001549 -2.8227256 27.22912346 -6.51171875 27.31640625 C-7.23994339 27.33718735 -7.96816803 27.35796844 -8.71846008 27.37937927 C-11.04137875 27.44468746 -13.36440906 27.50367237 -15.6875 27.5625 C-17.26368335 27.60570305 -18.83985548 27.64931792 -20.41601562 27.69335938 C-24.27722975 27.8003496 -28.13855603 27.90166961 -32 28 C-31.67 28.928125 -31.34 29.85625 -31 30.8125 C-30 34 -30 34 -30 37 C-29.34 37 -28.68 37 -28 37 C-28 37.66 -28 38.32 -28 39 C-21.85821657 40.56931599 -16.70524986 41.80106028 -10.76171875 39.13671875 C-8.83267297 37.89203511 -7.51926245 36.52727076 -6 34.8125 C-4.24736038 32.8516739 -3.46956298 32.08452134 -0.8515625 31.61328125 C1.375 31.625 1.375 31.625 5 32 C6.125 33.625 6.125 33.625 7 36 C5.85312394 41.98924167 2.57744829 45.08532413 -2.1875 48.625 C-12.02920946 53.4365024 -20.47864147 53.47561377 -31 51 C-38.73965563 48.21451982 -42.34802076 43.85414497 -45.94140625 36.5859375 C-49.37847899 28.189841 -49.43380729 17.49652718 -46.1171875 9.03125 C-42.78621408 2.9749347 -37.65911344 -2.53635462 -31.1875 -5.125 C-20.21553401 -8.13691223 -9.0552605 -7.32938164 0 0 Z M-29 8 C-31.04920215 11.39178288 -32.03535663 14.14142654 -33 18 C-24.75 18 -16.5 18 -8 18 C-8.81322042 10.85890305 -8.81322042 10.85890305 -13 6 C-19.5406752 3.1384546 -23.43331702 3.49927759 -29 8 Z " fill="#FDFDFD" transform="translate(688,72)"/>
<path d="M0 0 C0.99 0.66 1.98 1.32 3 2 C3 2.66 3 3.32 3 4 C3.66 4 4.32 4 5 4 C11.19326083 13.45087815 13.08901908 22.03705464 11.4375 33.25 C9.69400189 40.48316106 5.30581783 47.0011887 -1 51 C-9.58781762 55.14055492 -17.83122834 56.27759186 -27.0546875 53.69140625 C-35.21998607 50.78928206 -40.479772 45.67096369 -44.203125 37.96484375 C-47.8273307 29.02868951 -46.76874367 19.03449004 -43.125 10.3046875 C-39.72734278 3.34420916 -34.21203463 -0.35530076 -27.12890625 -3.12109375 C-17.73563274 -5.75965372 -8.67171852 -4.13946145 0 0 Z M-28 13 C-31.35658577 18.68492167 -31.51721761 25.43709174 -30.3125 31.8125 C-29.10254786 36.40869403 -27.0813671 39.43897467 -23.25 42.3125 C-18.19291292 43.85772105 -14.37246945 43.64739125 -9.6875 41.4375 C-5.32359571 37.47954029 -4.22710089 34.38315747 -3.68359375 28.6796875 C-3.45085177 21.60733431 -3.51352228 16.60809715 -8 11 C-11.77626574 7.61743005 -14.59139802 7.43263711 -19.5234375 7.578125 C-23.60815663 8.27394466 -25.23009281 9.95310209 -28 13 Z " fill="#FEFEFE" transform="translate(715,181)"/>
<path d="M0 0 C5.49809863 4.42870101 10.42839367 10.38505077 11.25805664 17.61938477 C11.37670011 19.8925731 11.41485398 22.14949659 11.41015625 24.42578125 C11.40773926 25.63077271 11.40773926 25.63077271 11.40527344 26.86010742 C11.28086006 32.86915171 10.42821977 37.59796744 7.03515625 42.67578125 C6.16890625 44.03703125 6.16890625 44.03703125 5.28515625 45.42578125 C-1.114813 51.8257505 -8.39510061 54.61099859 -17.33984375 54.98828125 C-26.51751343 54.75051779 -34.23934997 51.48791442 -40.65234375 44.92578125 C-46.35716376 36.90819637 -47.28347019 28.38874854 -46.96484375 18.67578125 C-45.49420683 11.41998983 -41.50249252 5.51982552 -35.96484375 0.67578125 C-25.49619094 -6.07503224 -10.57512144 -7.12716932 0 0 Z M-26.96484375 10.67578125 C-31.41867864 16.87933699 -31.55438241 23.24338319 -30.96484375 30.67578125 C-29.82063298 35.26945098 -27.59834289 38.62833036 -23.96484375 41.67578125 C-19.75595384 43.78022621 -14.53194606 43.16332419 -10.15234375 41.80078125 C-5.46738059 37.24967418 -3.74552215 30.96720954 -3.52734375 24.55078125 C-3.83168168 18.30694509 -4.99337566 13.55336991 -9.58984375 9.17578125 C-15.56225674 6.52137548 -21.77509885 6.24923413 -26.96484375 10.67578125 Z " fill="#FEFEFE" transform="translate(530.96484375,181.32421875)"/>
<path d="M0 0 C0.74765625 -0.00225586 1.4953125 -0.00451172 2.265625 -0.00683594 C7.65578427 0.15239716 11.8556564 1.45738522 16.8125 3.5625 C16.8125 4.2225 16.8125 4.8825 16.8125 5.5625 C17.410625 5.830625 18.00875 6.09875 18.625 6.375 C20.81097854 7.56167406 22.22582594 8.65849113 23.8125 10.5625 C23.8125 11.2225 23.8125 11.8825 23.8125 12.5625 C24.4725 12.5625 25.1325 12.5625 25.8125 12.5625 C29.84214001 22.13289502 30.87950033 33.74936834 26.9140625 43.5703125 C22.44765934 51.64785012 16.37878046 55.70707318 7.8125 58.5625 C-2.57558123 59.51343675 -11.48334512 59.12826389 -20.1875 52.5625 C-21.5078125 50.359375 -21.5078125 50.359375 -22.1875 48.5625 C-22.8475 48.5625 -23.5075 48.5625 -24.1875 48.5625 C-29.39575034 41.32881897 -29.76125399 31.86396898 -28.74609375 23.25390625 C-27.81747279 18.77964164 -26.11337936 14.69194364 -24.1875 10.5625 C-23.5275 10.5625 -22.8675 10.5625 -22.1875 10.5625 C-21.9503125 9.96953125 -21.713125 9.3765625 -21.46875 8.765625 C-17.08610185 1.22960805 -7.95307466 0.0098267 0 0 Z M-10.4375 17 C-14.05110729 22.29135353 -13.66854875 28.35181697 -13.1875 34.5625 C-12.10016283 39.38356112 -10.37991172 43.72978938 -6.1875 46.5625 C-2.53063765 47.59963533 0.70693763 47.77308331 4.4375 47.0625 C8.59596621 44.43610029 11.97360593 40.83949819 13.6875 36.1875 C13.72875 35.32125 13.77 34.455 13.8125 33.5625 C13.86148438 32.881875 13.91046875 32.20125 13.9609375 31.5 C14.25964103 24.69875048 12.88192745 19.88429665 8.25 14.6875 C1.76974772 9.03804929 -4.97218258 11.07923946 -10.4375 17 Z " fill="#FEFEFE" transform="translate(804.1875,65.4375)"/>
<path d="M0 0 C1.1713147 -0.00622879 2.34262939 -0.01245758 3.54943848 -0.01887512 C4.81509644 -0.00966537 6.08075439 -0.00045563 7.38476562 0.0090332 C8.68297241 0.0085347 9.9811792 0.00803619 11.31872559 0.00752258 C14.0659548 0.00761227 16.81289032 0.01803307 19.56005859 0.03613281 C23.08087234 0.05882017 26.60125699 0.05936378 30.12212372 0.05261517 C33.48055331 0.04846958 36.83885082 0.06044774 40.19726562 0.0715332 C41.46292358 0.0706218 42.72858154 0.06971039 44.03259277 0.06877136 C45.78956482 0.08306938 45.78956482 0.08306938 47.58203125 0.09765625 C48.61444946 0.10226364 49.64686768 0.10687103 50.71057129 0.11161804 C53.29101562 0.37231445 53.29101562 0.37231445 56.29101562 2.37231445 C57.23186048 6.00128747 57.79925477 8.29936514 56.16601562 11.74731445 C51.94737591 15.40346887 45.76514521 14.49242232 40.47851562 14.43481445 C39.69025391 14.43030273 38.90199219 14.42579102 38.08984375 14.42114258 C36.15686802 14.40942757 34.2239317 14.39149444 32.29101562 14.37231445 C32.30767021 15.46439461 32.30767021 15.46439461 32.32466125 16.57853699 C32.42496425 23.44927572 32.50103169 30.31990464 32.55007648 37.19118786 C32.57613951 40.7236429 32.61147428 44.25549158 32.66821289 47.78759766 C32.73307627 51.85105107 32.75722294 55.91387044 32.77929688 59.9777832 C32.8051033 61.24252975 32.83090973 62.50727631 32.85749817 63.81034851 C32.86062238 73.57910259 32.86062238 73.57910259 29.91674805 76.64697266 C27.14615308 78.46750215 25.6086909 79.37231445 22.29101562 79.37231445 C18.80466961 77.75075817 17.44799368 76.60778154 15.29101562 73.37231445 C15.05050659 70.77168274 15.05050659 70.77168274 15.06396484 67.61572266 C15.06411591 66.43472488 15.06426697 65.25372711 15.06442261 64.03694153 C15.07474518 62.76187241 15.08506775 61.48680328 15.09570312 60.1730957 C15.09853302 58.8677739 15.10136292 57.56245209 15.10427856 56.21757507 C15.11190815 52.7503593 15.13155069 49.28331157 15.15368652 45.81616211 C15.17415957 42.27695997 15.18328339 38.73773064 15.19335938 35.19848633 C15.21479733 28.25636009 15.24892507 21.31434534 15.29101562 14.37231445 C13.68033203 14.40711914 13.68033203 14.40711914 12.03710938 14.44262695 C10.60091847 14.46140069 9.16471997 14.47959916 7.72851562 14.49731445 C7.02404297 14.51407227 6.31957031 14.53083008 5.59375 14.5480957 C0.77380106 14.5925192 -3.16076259 14.01199186 -7.70898438 12.37231445 C-9.67130958 10.00117149 -9.74511473 8.86609592 -9.52148438 5.80981445 C-7.78883654 0.61187096 -5.24670682 -0.00319871 0 0 Z " fill="#FEFEFE" transform="translate(589.708984375,45.627685546875)"/>
<path d="M0 0 C2.83357685 2.13943949 3.88283351 3.33057761 4.50120544 6.86360168 C4.50137161 7.97055893 4.50153778 9.07751617 4.50170898 10.21801758 C4.51108994 11.47644974 4.52047089 12.7348819 4.53013611 14.03144836 C4.51965433 15.40248288 4.50828484 16.77351086 4.49609375 18.14453125 C4.49624882 19.55694147 4.49773915 20.96935212 4.50050354 22.38175964 C4.50188733 25.34169334 4.48933846 28.30114239 4.46655273 31.26098633 C4.43824554 35.0404536 4.44088411 38.81911114 4.45364285 42.59863758 C4.46062746 45.51648267 4.45277794 48.43414341 4.44038582 51.35196495 C4.43589274 52.74450662 4.43551565 54.13706823 4.43945122 55.52961159 C4.46008879 69.26419614 4.46008879 69.26419614 1 75 C-4.74128383 79.74279968 -9.716215 80.3767475 -17 80 C-23.4893617 78.5106383 -23.4893617 78.5106383 -26 76 C-26.5613563 69.82508073 -26.5613563 69.82508073 -24.8359375 67.2890625 C-22.26626351 65.48482331 -20.41628197 65.70295475 -17.3125 65.8125 C-16.31863281 65.83957031 -15.32476563 65.86664063 -14.30078125 65.89453125 C-13.16189453 65.94673828 -13.16189453 65.94673828 -12 66 C-11.99191315 65.25941849 -11.98382629 64.51883698 -11.97549438 63.7558136 C-11.8974638 56.76705317 -11.81014775 49.77848431 -11.71247292 42.78997517 C-11.66258616 39.19734348 -11.61625577 35.60474011 -11.578125 32.01196289 C-11.54117546 28.54292796 -11.4947899 25.07413441 -11.44193649 21.60530663 C-11.41446103 19.64176204 -11.39668845 17.67808943 -11.37905884 15.71443176 C-11.35918915 14.5135643 -11.33931946 13.31269684 -11.31884766 12.07543945 C-11.30552399 11.02064896 -11.29220032 9.96585846 -11.2784729 8.87910461 C-10.98578098 5.85299096 -10.43345609 3.67985739 -9 1 C-5.68377419 -0.1054086 -3.47482175 -0.35457365 0 0 Z " fill="#FEFEFE" transform="translate(659,177)"/>
<path d="M0 0 C1.20849609 0.10248047 1.20849609 0.10248047 2.44140625 0.20703125 C3.64603516 0.29017578 3.64603516 0.29017578 4.875 0.375 C7.00390625 1.01953125 7.00390625 1.01953125 8.2890625 2.9453125 C9.00390625 5.01953125 9.00390625 5.01953125 9.00390625 7.01953125 C9.76703125 6.05015625 10.53015625 5.08078125 11.31640625 4.08203125 C13.2713944 1.59866793 13.86040784 1.06736405 17.00390625 0.01953125 C22.6680268 -0.35188649 26.06589386 -0.08108118 31.00390625 3.01953125 C31.64328125 3.41140625 32.28265625 3.80328125 32.94140625 4.20703125 C34.83758937 7.44169657 33.75190853 10.45213575 33.00390625 14.01953125 C29.19805222 15.92245827 24.42972191 14.5525941 20.2890625 14.17578125 C16.9974711 13.82115329 16.9974711 13.82115329 14.00390625 15.01953125 C10.81279172 21.27902515 9.89639683 27.08840489 9.86328125 34.1171875 C9.84394531 35.24833984 9.82460938 36.37949219 9.8046875 37.54492188 C9.77077974 39.906728 9.75259994 42.2688113 9.75 44.63085938 C9.54160985 54.24422609 9.54160985 54.24422609 6.68359375 57.32421875 C4.00390625 59.01953125 4.00390625 59.01953125 0.37890625 59.08203125 C-3.36951449 57.90197287 -4.06318461 57.30511746 -5.99609375 54.01953125 C-6.37704468 51.74989319 -6.37704468 51.74989319 -6.38427734 49.23852539 C-6.39373383 48.29396988 -6.40319031 47.34941437 -6.41293335 46.37623596 C-6.40686066 45.36262497 -6.40078796 44.34901398 -6.39453125 43.3046875 C-6.39740143 42.2567955 -6.40027161 41.2089035 -6.40322876 40.1292572 C-6.40526913 37.91437235 -6.39974119 35.69946947 -6.38720703 33.48461914 C-6.37116965 30.09805878 -6.38704895 26.71269484 -6.40625 23.32617188 C-6.40426725 21.17317445 -6.40042292 19.02017777 -6.39453125 16.8671875 C-6.40060394 15.85560074 -6.40667664 14.84401398 -6.41293335 13.80177307 C-6.27582829 0.06140732 -6.27582829 0.06140732 0 0 Z " fill="#FEFEFE" transform="translate(612.99609375,176.98046875)"/>
<path d="M0 0 C2.17476401 1.54338091 2.81832637 2.63665273 4 5 C4.11239167 7.15844442 4.15936369 9.32039283 4.17700195 11.48168945 C4.18357315 12.14694641 4.19014435 12.81220337 4.19691467 13.49761963 C4.21665161 15.70284129 4.22831138 17.90799482 4.23828125 20.11328125 C4.24235678 20.86645315 4.2464323 21.61962505 4.25063133 22.39562035 C4.2714943 26.38247784 4.2857947 30.36930089 4.29516602 34.35620117 C4.30622785 38.47221781 4.34062383 42.58769343 4.38033772 46.70351887 C4.40649687 49.87000018 4.41485721 53.03635249 4.41844749 56.20293236 C4.42331575 57.71997924 4.43493667 59.23702027 4.45348549 60.75396156 C4.4778626 62.87978453 4.47691555 65.0042067 4.4699707 67.13012695 C4.47583694 68.33876907 4.48170319 69.54741119 4.48774719 70.79267883 C3.90550901 74.62135253 2.68110808 76.26069514 0 79 C-1.875 80 -1.875 80 -4 80 C-9.66666667 77.66666667 -9.66666667 77.66666667 -11 75 C-11.10750588 72.73897759 -11.14892066 70.47472548 -11.16113281 68.21118164 C-11.16609772 67.51345139 -11.17106262 66.81572113 -11.17617798 66.09684753 C-11.19080458 63.78460715 -11.19760187 61.47243533 -11.203125 59.16015625 C-11.20887539 57.55594378 -11.21463314 55.95173134 -11.22039795 54.34751892 C-11.2309089 50.98240844 -11.23675116 47.61732186 -11.24023438 44.25219727 C-11.24572385 39.9365512 -11.26976092 35.62121988 -11.29820633 31.30567265 C-11.31681206 27.99172537 -11.32203716 24.67785428 -11.32357025 21.36385918 C-11.32660125 19.77261061 -11.33464482 18.18136353 -11.34775543 16.59016609 C-11.3647758 14.36593647 -11.36294616 12.14248088 -11.35644531 9.91821289 C-11.36009094 8.65183487 -11.36373657 7.38545685 -11.36749268 6.08070374 C-11 3 -11 3 -9.59881592 1.09251404 C-6.65236931 -0.9208724 -3.41567937 -0.54194495 0 0 Z " fill="#FEFEFE" transform="translate(713,45)"/>
<path d="M0 0 C3.6875 0.3125 3.6875 0.3125 6.0625 2.125 C8.42405916 5.30402194 8.81486077 7.85811372 8.84863281 11.70458984 C8.85824036 12.58915863 8.8678479 13.47372742 8.87774658 14.38510132 C8.88199646 15.33825226 8.88624634 16.2914032 8.890625 17.2734375 C8.89632507 18.25615631 8.90202515 19.23887512 8.90789795 20.25137329 C8.91734519 22.33098271 8.92388083 24.41060707 8.92773438 26.49023438 C8.93744116 29.66823481 8.96846786 32.84558882 9 36.0234375 C9.00653011 38.04426699 9.01178055 40.06510111 9.015625 42.0859375 C9.0279718 43.03503998 9.0403186 43.98414246 9.05303955 44.96200562 C9.03649693 49.87266494 8.98595789 53.38314199 5.6875 57.3125 C2.6875 59.3125 2.6875 59.3125 -0.8125 59.25 C-4.3125 58.3125 -4.3125 58.3125 -6.00634766 56.41601562 C-7.92333622 51.86110748 -7.74106487 47.61327304 -7.7109375 42.71875 C-7.71380768 41.69446899 -7.71667786 40.67018799 -7.71963501 39.61486816 C-7.72167307 37.45303798 -7.71616128 35.29118926 -7.70361328 33.12939453 C-7.68755647 29.82412402 -7.70347124 26.52007632 -7.72265625 23.21484375 C-7.72067377 21.11197647 -7.71683001 19.00910996 -7.7109375 16.90625 C-7.71701019 15.91967407 -7.72308289 14.93309814 -7.7293396 13.91662598 C-7.66558135 7.68366312 -7.39522571 0.6976628 0 0 Z " fill="#FEFEFE" transform="translate(408.3125,176.6875)"/>
<path d="M0 0 C4.49282297 1.21680622 4.49282297 1.21680622 6 3.8125 C6.53568236 7.37627572 6.71494868 10.5811995 4.875 13.75 C2.17323836 15.28099826 0.10564495 15.6882742 -3 15.8125 C-6.20206733 14.50256337 -7.62861797 13.36214541 -9.5625 10.5 C-10 7.8125 -10 7.8125 -8.3125 4.625 C-4.28929987 -0.26808124 -4.28929987 -0.26808124 0 0 Z " fill="#FDFDFD" transform="translate(657,156.1875)"/>
<path d="M0 0 C3.375 1.5625 3.375 1.5625 5.4375 3.8125 C6.375 6.5625 6.375 6.5625 5.8125 9.6875 C4.28405198 12.74439605 3.39479575 14.00946219 0.375 15.5625 C-2.0625 16.0625 -2.0625 16.0625 -4.625 15.5625 C-7.5 13.5 -7.5 13.5 -9.625 10.5625 C-9.77622437 6.25260556 -9.25637909 4.32386891 -6.5 1 C-3.625 -0.4375 -3.625 -0.4375 0 0 Z " fill="#FDFDFD" transform="translate(410.625,156.4375)"/>
<path d="M0 0 C0.33 0 0.66 0 1 0 C1 3.96 1 7.92 1 12 C0.67 12 0.34 12 0 12 C0 8.04 0 4.08 0 0 Z " fill="#FFFFFF" transform="translate(836,88)"/>
<path d="M0 0 C0.99 0 1.98 0 3 0 C3 0.66 3 1.32 3 2 C2.01 1.67 1.02 1.34 0 1 C0 0.67 0 0.34 0 0 Z " fill="#FFFFFF" transform="translate(645,180)"/>
<path d="" fill="#FFFFFF" transform="translate(0,0)"/>
<path d="" fill="#FFFFFF" transform="translate(0,0)"/>
</svg>
